# AST/ASF file generated using VICON BodyLanguage
# -----------------------------------------------
:version 1.10
:name VICON
:units
  mass 1.0
  length 0.45
  angle deg
:documentation
   .ast/.asf automatically generated from VICON data using
   VICON BodyBuilder and BodyLanguage model FoxedUp or BRILLIANT.MOD
:root
   order TX TY TZ RX RY RZ
   axis XYZ
   position 0 0 0  
   orientation 0 0 0 
:bonedata
  begin
     id 1 
     name lhipjoint
     direction 0.578396 -0.714046 0.394458 
     length 2.21935 
     axis 0 0 0  XYZ
  end
  begin
     id 2 
     name lfemur
     direction 0.34202 -0.939693 0  
     length 6.39105  
     axis 0 0 20  XYZ
    dof rx ry rz
    limits (-160.0 20.0)
           (-70.0 70.0)
           (-60.0 70.0)
  end
  begin
     id 3 
     name ltibia
     direction 0.34202 -0.939693 0   
     length 6.99037   
     axis 0 0 20   XYZ
    dof rx
    limits (-10.0 170.0)
  end
  begin
     id 4 
     name lfoot
     direction 0.0582372 -0.160005 0.985397   
     length 2.06111   
     axis -90 7.62852e-016 20   XYZ
    dof rx rz
    limits (-45.0 90.0)
           (-70.0 20.0)
  end
  begin
     id 5 
     name ltoes
     direction 1.53556e-011 -4.21875e-011 1   
     length 1.04074   
     axis -90 7.62852e-016 20   XYZ
    dof rx
    limits (-90.0 20.0)
  end
  begin
     id 6 
     name rhipjoint
     direction -0.558179 -0.726269 0.40121   
     length 2.182  
     axis 0 0 0  XYZ 
  end
  begin
     id 7 
     name rfemur
     direction -0.34202 -0.939693 0   
     length 6.51172   
     axis 0 0 -20   XYZ
    dof rx ry rz
    limits (-160.0 20.0)
           (-70.0 70.0)
           (-70.0 60.0)
  end
  begin
     id 8 
     name rtibia
     direction -0.34202 -0.939693 0   
     length 7.02607   
     axis 0 0 -20   XYZ
    dof rx
    limits (-10.0 170.0)
 end
 begin
     id 9 
     name rfoot
     direction -0.0788856 -0.216737 0.973038   
     length 1.96734  
     axis -90 -7.62852e-016 -20   XYZ
    dof rx rz
    limits (-45.0 90.0)
           (-20.0 70.0)
  end
  begin
     id 10 
     name rtoes
     direction -1.53567e-011 -4.21783e-011 1   
     length 0.990825   
     axis -90 -7.62852e-016 -20   XYZ
    dof rx
    limits (-90.0 20.0)
  end
  begin
     id 11 
     name lowerback
     direction 0.00668177 0.999323 -0.0361741   
     length 1.7655   
     axis 0 0 0   XYZ
    dof rx ry rz
    limits (-20.0 45.0)
           (-30.0 30.0)
           (-30.0 30.0)
  end
  begin
     id 12 
     name upperback
     direction -0.00222086 0.99851 0.0545167   
     length 1.74912   
     axis 0 0 0   XYZ
    dof rx ry rz
    limits (-20.0 45.0)
           (-30.0 30.0)
           (-30.0 30.0)
  end
  begin
     id 13 
     name thorax
     direction -0.00733971 0.997496 0.0703443   
     length 1.75715   
     axis 0 0 0   XYZ
    dof rx ry rz
    limits (-20.0 45.0)
           (-30.0 30.0)
           (-30.0 30.0)
  end
  begin
     id 14 
     name lowerneck
     direction 0.0279797 0.994795 0.0979765   
     length 1.46939   
     axis 0 0 0   XYZ
    dof rx ry rz
    limits (-20.0 45.0)
           (-30.0 30.0)
           (-30.0 30.0)
  end
  begin
     id 15 
     name upperneck
     direction 0.00339187 0.976776 -0.214238   
     length 1.48018   
     axis 0 0 0   XYZ
    dof rx ry rz
    limits (-20.0 45.0)
           (-30.0 30.0)
           (-30.0 30.0)
  end
  begin
     id 16
     name head
     direction -0.00263506 0.996603 -0.0823096  
     length 1.4976  
     axis 0 0 0   XYZ
    dof rx ry rz
    limits (-20.0 45.0)
           (-30.0 30.0)
           (-30.0 30.0)
  end
  begin
     id 17 
     name lclavicle
     direction 0.894044 0.44508 -0.0508781  
     length 3.03024  
     axis 0 0 0   XYZ
    dof ry rz
    limits (-20.0 10.0)
           (0.0 20.0)
  end
  begin
     id 18 
     name lhumerus
     direction 1 -4.48961e-011 -2.39475e-018   
     length 4.4661   
     axis 180 -30 -90   XYZ
    dof rx ry rz
    limits (-60.0 90.0)
           (-90.0 90.0)
           (-90.0 90.0)
  end
  begin
     id 19
     name lradius
     direction 1 -4.48961e-011 9.29328e-028   
     length 3.41414   
     axis 180 -30 -90   XYZ
    dof rx
    limits (-10.0 170.0)
  end
  begin
     id 20
     name lwrist
     direction 1 -4.48985e-011 1.53461e-026   
     length 1.70707   
     axis -1.09697e-014 90 90   XYZ
    dof ry
    limits (-180.0 0.0)
 end
  begin
     id 21 
     name lhand
     direction 1 -4.48966e-011 3.06923e-026   
     length 0.328298   
     axis -1.95843e-014 90 90   XYZ
    dof rx rz
    limits (-90.0 90.0)
           (-45.0 45.0)
  end
  begin
     id 22 
     name lfingers
     direction 1 -4.48893e-011 6.13845e-026   
     length 0.264682   
     axis -3.91686e-014 90 90   XYZ
    dof rx
    limits (0.0 90.0)
  end
  begin
     id 23
     name lthumb
     direction 0.707107 -6.34876e-011 0.707107   
     length 0.380032   
     axis -90 45 2.85299e-015   XYZ
    dof rx rz
    limits (-45.0 45.0)
           (-45.0 45.0)
  end
  begin
     id 24 
     name rclavicle
     direction -0.936955 0.347862 -0.0332887   
     length 3.26927  
     axis 0 0 0   XYZ 
    dof ry rz
    limits (-10.0 20.0)
           (-20.0 0.0)
  end
  begin
     id 25 
     name rhumerus
     direction -1 -4.4896e-011 1.78637e-018  
     length 4.40431   
     axis 180 30 90   XYZ
    dof rx ry rz
    limits (-90.0 60.0)
           (-90.0 90.0)
           (-90.0 90.0)
  end
  begin
     id 26 
     name rradius
     direction -1 -4.48955e-011 9.34036e-027   
     length 3.04688   
     axis 180 30 90   XYZ
    dof rx
    limits (-10.0 170.0)
  end
  begin
     id 27 
     name rwrist
     direction -1 -4.49011e-011 1.53461e-026   
     length 1.52344   
     axis -1.09697e-014 -90 -90   XYZ
    dof ry
    limits (-180.0 0.0)
  end
  begin
     id 28
     name rhand
     direction -1 -4.48834e-011 3.06923e-026   
     length 0.500489   
     axis -1.95843e-014 -90 -90   XYZ
    dof rx rz
    limits (-90.0 90.0)
           (-45.0 45.0)
  end
  begin
     id 29
     name rfingers
     direction -1 -4.48967e-011 6.13845e-026   
     length 0.403507   
     axis -3.91686e-014 -90 -90   XYZ
    dof rx
    limits (0.0 90.0)
  end
  begin
     id 30
     name rthumb
     direction -0.707107 -6.34826e-011 0.707107   
     length 0.579358   
     axis -90 -45 -2.85299e-015   XYZ
    dof rx rz
    limits (-45.0 45.0)
           (-45.0 45.0)
  end
:hierarchy
  begin
    root lhipjoint rhipjoint lowerback
    lhipjoint lfemur
    lfemur ltibia
    ltibia lfoot
    lfoot ltoes
    rhipjoint rfemur
    rfemur rtibia
    rtibia rfoot
    rfoot rtoes
    lowerback upperback
    upperback thorax
    thorax lowerneck lclavicle rclavicle
    lowerneck upperneck
    upperneck head
    lclavicle lhumerus
    lhumerus lradius
    lradius lwrist
    lwrist lhand lthumb
    lhand lfingers
    rclavicle rhumerus
    rhumerus rradius
    rradius rwrist
    rwrist rhand rthumb
    rhand rfingers
  end

#!OML:ASF H:\IndianDance\Patient Classification 1\Patient 1\Session 1\dancer.ASF
:FULLY-SPECIFIED
:DEGREES
1022
root 17.387 15.7978 -3.25016 -170.884 3.64382 -174.653
lowerback 3.64508 2.68423 -0.0587165
upperback -8.17058 4.15479 -0.253146
thorax -10.7315 2.23394 -0.814326
lowerneck -16.9421 -3.23005 -4.84903
upperneck 17.7058 -6.01861 10.7784
head 8.82569 -2.26817 3.67833
rclavicle 2.39536e-014 1.27222e-014
rhumerus -7.13074 -25.6698 -43.6536
rradius 55.5659
rwrist -84.2988
rhand -27.9958 -22.6504
rfingers 7.12502
rthumb -1.3819 -52.6257
lclavicle 2.39536e-014 1.27222e-014
lhumerus 19.2687 44.4602 41.2601
lradius 29.5151
lwrist 46.0057
lhand -5.95215 -313.15
lfingers 7.12502
lthumb 19.8784 -284.146
rfemur -35.1009 -19.5152 23.0124
rtibia 54.0422
rfoot 6.8408 -0.524916
rtoes -12.2766
lfemur -26.4415 16.5933 -20.0495
ltibia 44.8165
lfoot -7.21941 -0.301837
ltoes -2.51098
1023
root 17.4231 15.7685 -3.25804 -170.8 4.61379 -174.726
lowerback 3.6065 2.90086 -0.242924
upperback -8.17911 4.42865 -0.261656
thorax -10.7304 2.38061 -0.754295
lowerneck -17.0299 -3.11895 -4.72955
upperneck 17.8785 -5.90871 10.7295
head 8.8857 -2.20987 3.65772
rclavicle -3.46879e-014 -5.56597e-015
rhumerus -5.30107 -24.6465 -44.5195
rradius 53.9266
rwrist -83.7164
rhand -28.4476 -24.0816
rfingers 7.12502
rthumb -1.81822 -54.0536
lclavicle -3.46879e-014 -5.56597e-015
lhumerus 20.7141 44.0093 42.4424
lradius 28.264
lwrist 45.572
lhand -5.05527 -312.086
lfingers 7.12502
lthumb 20.7403 -283.174
rfemur -36.1064 -19.5774 23.135
rtibia 55.2071
rfoot 6.57353 -0.260294
rtoes -11.3657
lfemur -26.068 16.5378 -20.2307
ltibia 44.4288
lfoot -7.91377 1.3484
ltoes -3.85777
1024
root 17.4643 15.7399 -3.26713 -170.737 5.59761 -174.904
lowerback 3.55774 3.10696 -0.597154
upperback -8.18199 4.66906 -0.307938
thorax -10.7293 2.52289 -0.635498
lowerneck -17.1369 -3.00254 -4.58545
upperneck 18.0583 -5.80692 10.705
head 8.953 -2.15157 3.64035
rclavicle 3.44891e-014 7.95139e-016
rhumerus -3.58081 -23.5731 -45.4433
rradius 52.5235
rwrist -83.0977
rhand -28.929 -25.5439
rfingers 7.12502
rthumb -2.28317 -55.5114
lclavicle 3.44891e-014 7.95139e-016
lhumerus 22.0494 43.4763 43.536
lradius 27.2896
lwrist 45.8976
lhand -4.87154 -310.613
lfingers 7.12502
lthumb 20.9168 -281.72
rfemur -37.068 -19.5605 23.1731
rtibia 56.2826
rfoot 6.02182 -0.262372
rtoes -10.7872
lfemur -25.6798 16.5681 -20.4376
ltibia 44.0461
lfoot -8.4999 2.82453
ltoes -5.05666
1025
root 17.5109 15.7128 -3.2771 -170.696 6.54921 -175.174
lowerback 3.49767 3.29095 -1.08322
upperback -8.18148 4.86516 -0.392243
thorax -10.7282 2.65269 -0.478202
lowerneck -17.2485 -2.88471 -4.43104
upperneck 18.2316 -5.71555 10.7131
head 9.02119 -2.09508 3.631
rclavicle -6.08281e-014 1.90833e-014
rhumerus -1.9644 -22.4606 -46.4225
rradius 51.2895
rwrist -82.2856
rhand -29.3347 -27.0688
rfingers 7.12502
rthumb -2.67499 -57.0318
lclavicle -6.08281e-014 1.90833e-014
lhumerus 23.3171 42.8831 44.5873
lradius 26.5248
lwrist 46.5634
lhand -5.22337 -308.92
lfingers 7.12502
lthumb 20.5788 -279.991
rfemur -37.9535 -19.4933 23.1546
rtibia 57.1967
rfoot 5.22776 -0.544196
rtoes -10.7063
lfemur -25.3127 16.6913 -20.6633
ltibia 43.7108
lfoot -8.96293 3.97677
ltoes -6.39955
1026
root 17.5627 15.6883 -3.28776 -170.672 7.43143 -175.502
lowerback 3.42626 3.44701 -1.65881
upperback -8.17826 5.0152 -0.502113
thorax -10.7258 2.76659 -0.292427
lowerneck -17.3652 -2.77233 -4.28132
upperneck 18.4023 -5.63714 10.7428
head 9.09181 -2.04308 3.6283
rclavicle 1.53064e-014 2.38542e-015
rhumerus -0.460413 -21.2633 -47.4138
rradius 50.1816
rwrist -81.2577
rhand -29.6284 -28.6199
rfingers 7.12502
rthumb -2.95855 -58.5791
lclavicle 1.53064e-014 2.38542e-015
lhumerus 24.5748 42.2755 45.6713
lradius 25.8755
lwrist 47.1056
lhand -5.76102 -307.269
lfingers 7.12502
lthumb 20.0621 -278.285
rfemur -38.7288 -19.391 23.1184
rtibia 57.8792
rfoot 4.30913 -1.09676
rtoes -11.1342
lfemur -24.9983 16.9082 -20.8843
ltibia 43.4659
lfoot -9.32175 4.74325
ltoes -7.61175
1027
root 17.6192 15.667 -3.29893 -170.662 8.20616 -175.86
lowerback 3.3466 3.5645 -2.27137
upperback -8.17444 5.11065 -0.635474
thorax -10.7211 2.85651 -0.104131
lowerneck -17.4869 -2.66516 -4.12449
upperneck 18.5653 -5.57299 10.7896
head 9.16276 -1.99588 3.62836
rclavicle 1.10325e-014 -2.38542e-014
rhumerus 0.924659 -19.9503 -48.3996
rradius 49.1727
rwrist -80.0452
rhand -29.8845 -30.1188
rfingers 7.12502
rthumb -3.20592 -60.0745
lclavicle 1.10325e-014 -2.38542e-014
lhumerus 25.7928 41.6048 46.7325
lradius 25.2797
lwrist 47.2457
lhand -6.13222 -305.806
lfingers 7.12502
lthumb 19.7052 -276.785
rfemur -39.3699 -19.2781 23.0969
rtibia 58.2764
rfoot 3.41575 -1.90655
rtoes -11.7058
lfemur -24.77 17.217 -21.0805
ltibia 43.3494
lfoot -9.58738 5.18339
ltoes -8.59371
1028
root 17.6798 15.6497 -3.31042 -170.663 8.84274 -176.22
lowerback 3.26622 3.63844 -2.87439
upperback -8.16896 5.14959 -0.783757
thorax -10.7123 2.91804 0.0701337
lowerneck -17.5961 -2.57021 -3.994
upperneck 18.704 -5.52708 10.8748
head 9.22693 -1.95633 3.64356
rclavicle 7.33515e-014 -1.03368e-014
rhumerus 2.17557 -18.4759 -49.3329
rradius 48.2593
rwrist -78.7019
rhand -30.1633 -31.4663
rfingers 7.12502
rthumb -3.4752 -61.4177
lclavicle 7.33515e-014 -1.03368e-014
lhumerus 26.9065 40.7821 47.6853
lradius 24.7198
lwrist 46.9552
lhand -6.31467 -304.661
lfingers 7.12502
lthumb 19.5298 -275.622
rfemur -39.857 -19.1805 23.1134
rtibia 58.3646
rfoot 2.67668 -2.85561
rtoes -12.0201
lfemur -24.654 17.6056 -21.2359
ltibia 43.3977
lfoot -9.76073 5.31626
ltoes -9.31321
1029
root 17.7435 15.6361 -3.32189 -170.678 9.31883 -176.553
lowerback 3.1977 3.67201 -3.4156
upperback -8.15937 5.13984 -0.943897
thorax -10.6982 2.9505 0.203315
lowerneck -17.688 -2.4992 -3.90405
upperneck 18.8134 -5.51294 11.0055
head 9.28334 -1.9313 3.67692
rclavicle -6.63941e-014 1.66979e-014
rhumerus 3.26423 -16.8164 -50.1566
rradius 47.459
rwrist -77.3307
rhand -30.5096 -32.6796
rfingers 7.12502
rthumb -3.8096 -62.6253
lclavicle -6.63941e-014 1.66979e-014
lhumerus 27.7097 39.5385 48.2596
lradius 24.2716
lwrist 46.5622
lhand -6.16333 -303.765
lfingers 7.12502
lthumb 19.6753 -274.741
rfemur -40.1652 -19.1197 23.1921
rtibia 58.1608
rfoot 2.16725 -3.84881
rtoes -11.967
lfemur -24.669 18.0711 -21.3269
ltibia 43.6473
lfoot -9.81126 5.16399
ltoes -10.0108
1030
root 17.8098 15.6259 -3.33301 -170.713 9.6267 -176.838
lowerback 3.15489 3.66347 -3.86545
upperback -8.13792 5.0798 -1.10562
thorax -10.6749 2.95034 0.290054
lowerneck -17.7745 -2.44999 -3.85081
upperneck 18.8988 -5.52277 11.1622
head 9.33449 -1.91785 3.72208
rclavicle -3.58806e-014 -2.38542e-015
rhumerus 4.1919 -14.9424 -50.8367
rradius 46.8029
rwrist -76.0154
rhand -30.9365 -33.816
rfingers 7.12502
rthumb -4.22187 -63.7539
lclavicle -3.58806e-014 -2.38542e-015
lhumerus 28.414 38.1383 48.7187
lradius 23.8652
lwrist 45.8075
lhand -5.71747 -303.071
lfingers 7.12502
lthumb 20.1039 -274.092
rfemur -40.2706 -19.1124 23.3348
rtibia 57.7184
rfoot 1.89511 -4.76687
rtoes -11.5427
lfemur -24.8238 18.5911 -21.3332
ltibia 44.1357
lfoot -9.72851 4.75966
ltoes -10.5788
